<svg xmlns="http://www.w3.org/2000/svg" viewBox="0 0 280 280" width="280" height="280">
  <defs>
    <linearGradient id="ag" x1="0" y1="0" x2="0" y2="1">
      <stop offset="0%" stop-color="#1a3d28"/><stop offset="50%" stop-color="#0f2418"/><stop offset="100%" stop-color="#08140c"/>
    </linearGradient>
    <linearGradient id="al" x1="0" y1="0" x2="0" y2="1">
      <stop offset="0%" stop-color="#2a5a3a"/><stop offset="100%" stop-color="#1a3824"/>
    </linearGradient>
    <filter id="aglow"><feGaussianBlur stdDeviation="8"/><feMerge><feMergeNode/><feMergeNode in="SourceGraphic"/></feMerge></filter>
    <filter id="asoft"><feGaussianBlur stdDeviation="16"/></filter>
    <radialGradient id="afloor" cx="50%" cy="50%" r="50%">
      <stop offset="0%" stop-color="#22c55e" stop-opacity="0.55"/><stop offset="100%" stop-color="#22c55e" stop-opacity="0"/>
    </radialGradient>
  </defs>
  <ellipse cx="140" cy="255" rx="115" ry="20" fill="url(#afloor)" filter="url(#asoft)"/>
  <rect x="48" y="110" width="184" height="120" rx="16" fill="url(#ag)" stroke="#2d6b3c" stroke-width="3"/>
  <!-- vine decoration -->
  <path d="M55 130 Q70 150 55 180 Q80 200 60 220" fill="none" stroke="#3d8a4a" stroke-width="3" opacity="0.5"/>
  <path d="M225 130 Q210 150 225 180 Q200 200 220 220" fill="none" stroke="#3d8a4a" stroke-width="3" opacity="0.5"/>
  <rect x="48" y="125" width="184" height="8" fill="#143020" stroke="#3d7a4a" stroke-width="1"/>
  <rect x="48" y="205" width="184" height="8" fill="#143020" stroke="#3d7a4a" stroke-width="1"/>
  <rect x="118" y="155" width="44" height="40" rx="6" fill="#1a3d28" stroke="#4ade80" stroke-width="2"/>
  <circle cx="140" cy="172" r="8" fill="none" stroke="#86efac" stroke-width="2.5"/>
  <rect x="136" y="172" width="8" height="12" rx="1" fill="#86efac"/>
  <path d="M45 115 Q140 55 235 115 L220 125 Q140 75 60 125 Z" fill="url(#al)" stroke="#3d8a4a" stroke-width="3"/>
  <path d="M60 115 Q140 70 220 115" fill="none" stroke="#6ee7b7" stroke-width="2" opacity="0.4"/>
  <ellipse cx="140" cy="112" rx="12" ry="5" fill="#2a5a3a" stroke="#4ade80"/>
  <rect x="95" y="188" width="90" height="22" rx="4" fill="#0a150e" stroke="#3d8a4a" stroke-width="1.5"/>
  <text x="140" y="204" text-anchor="middle" fill="#86efac" font-family="Arial Black,Arial,sans-serif" font-size="10" font-weight="900" letter-spacing="1">ANIMAL'S</text>
  <!-- animals peeking -->
  <g filter="url(#aglow)">
    <!-- monkey -->
    <circle cx="100" cy="75" r="16" fill="#c4a484"/>
    <circle cx="94" cy="72" r="3" fill="#1a1528"/>
    <circle cx="106" cy="72" r="3" fill="#1a1528"/>
    <ellipse cx="100" cy="82" rx="5" ry="3" fill="#a08060"/>
    <circle cx="88" cy="68" r="5" fill="#c4a484"/>
    <circle cx="112" cy="68" r="5" fill="#c4a484"/>
    <!-- duck -->
    <ellipse cx="140" cy="72" rx="14" ry="12" fill="#fbbf24"/>
    <circle cx="135" cy="68" r="2.5" fill="#1a1528"/>
    <path d="M152 72 Q162 70 155 78" fill="#f97316"/>
    <ellipse cx="140" cy="55" rx="8" ry="4" fill="#f59e0b"/>
    <!-- bear -->
    <circle cx="180" cy="78" r="15" fill="#d4a574"/>
    <circle cx="170" cy="68" r="6" fill="#d4a574"/>
    <circle cx="190" cy="68" r="6" fill="#d4a574"/>
    <circle cx="175" cy="76" r="2.5" fill="#1a1528"/>
    <circle cx="185" cy="76" r="2.5" fill="#1a1528"/>
    <ellipse cx="180" cy="85" rx="4" ry="3" fill="#1a1528"/>
    <!-- heart -->
    <path d="M155 95 C148 88 145 85 150 80 C153 77 155 79 155 82 C155 79 157 77 160 80 C165 85 162 88 155 95Z" fill="#f472b6"/>
  </g>
</svg>